:FULLY-SPECIFIED
:FORCE-ALL-JOINTS-BE-3DOF
:DEGREES
883
root 3.85195 16.5305 30.5312 -10.8246 23.6768 359.35
lfemur -15.8095 19.9983 -19.0116
ltibia 40.4913 0 0
lfoot -12.9326 0.0690648 0
ltoes -1.37978 0 0
rfemur -80.7132 -24.4467 36.5168
rtibia 101.126 0 0
rfoot 19.264 26.205 0
rtoes -8.14353 0 0
lowerback 15.0059 -4.01209 -6.64789
upperback 4.97444 -6.28636 -2.38034
thorax -2.64296 -3.11384 2.26165
lowerneck -7.71871 -3.24517 1.71638
upperneck 4.65939 -4.84264 4.94114
head 2.93726 -2.18998 1.06474
lclavicle -3.12092e-14 -4.77083e-15 0
lhumerus -33.0312 -40.5423 88.3441
lradius 60.5977 0 0
lwrist 19.6497 0 0
lhand 25.8347 11.8689 0
lfingers 7.12502 0 0
lthumb 49.9264 33.1302 0
rclavicle -3.12092e-14 -4.77083e-15 0
rhumerus -49.2556 -29.6742 -46.9493
rradius 72.2992 0 0
rwrist -23.3678 0 0
rhand -47.7649 -54.4874 0
rfingers 7.12502 0 0
rthumb -20.4424 -803.431 0
884
root 3.83288 16.5344 30.6012 -10.2193 24.3449 359.132
lfemur -16.6232 21.1668 -18.9232
ltibia 40.7817 0 0
lfoot -13.1531 0.145208 0
ltoes -1.25541 0 0
rfemur -78.1065 -25.3392 34.6078
rtibia 102.863 0 0
rfoot 19.2106 24.8044 0
rtoes -7.53277 0 0
lowerback 14.3313 -4.14577 -6.62543
upperback 4.6805 -6.42211 -2.25342
thorax -2.56243 -3.18131 2.351
lowerneck -7.72354 -3.45066 1.5562
upperneck 4.75611 -5.11062 4.99543
head 2.98523 -2.32156 1.0957
lclavicle -2.36996e-14 -5.14631e-15 0
lhumerus -34.0536 -41.132 89.7606
lradius 60.7138 0 0
lwrist 18.7309 0 0
lhand 26.0963 11.8233 0
lfingers 7.12502 0 0
lthumb 50.1651 32.9539 0
rclavicle -2.36996e-14 -5.14631e-15 0
rhumerus -49.1117 -28.6731 -48.8823
rradius 74.7252 0 0
rwrist -23.3122 0 0
rhand -47.593 -55.9777 0
rfingers 7.12502 0 0
rthumb -20.2772 -832.325 0
885
root 3.81247 16.5385 30.6762 -9.57124 25.0602 358.899
lfemur -17.4944 22.4178 -18.8287
ltibia 41.0927 0 0
lfoot -13.3892 0.226725 0
ltoes -1.12225 0 0
rfemur -75.3159 -26.2947 32.564
rtibia 104.723 0 0
rfoot 19.1534 23.3049 0
rtoes -6.8789 0 0
lowerback 13.609 -4.28889 -6.60138
upperback 4.36582 -6.56745 -2.11754
thorax -2.47622 -3.25355 2.44665
lowerneck -7.72871 -3.67065 1.3847
upperneck 4.85966 -5.39753 5.05355
head 3.03659 -2.46242 1.12884
lclavicle -1.56598e-14 -5.5483e-15 0
lhumerus -35.1482 -41.7633 91.2772
lradius 60.838 0 0
lwrist 17.7473 0 0
lhand 26.3764 11.7744 0
lfingers 7.12502 0 0
lthumb 50.4207 32.7651 0
rclavicle -1.56598e-14 -5.5483e-15 0
rhumerus -48.9577 -27.6014 -50.9517
rradius 77.3224 0 0
rwrist -23.2527 0 0
rhand -47.409 -57.5732 0
rfingers 7.12502 0 0
rthumb -20.1003 -863.258 0
886
root 3.79139 16.5427 30.7537 -8.90183 25.799 358.659
lfemur -18.3943 23.7101 -18.7309
ltibia 41.4139 0 0
lfoot -13.633 0.31093 0
ltoes -0.984711 0 0
rfemur -72.4332 -27.2818 30.4529
rtibia 106.644 0 0
rfoot 19.0944 21.756 0
rtoes -6.20347 0 0
lowerback 12.863 -4.43673 -6.57654
upperback 4.04076 -6.71757 -1.97718
thorax -2.38716 -3.32817 2.54546
lowerneck -7.73406 -3.89789 1.20756
upperneck 4.96663 -5.69388 5.11359
head 3.08964 -2.60793 1.16308
lclavicle -7.35505e-15 -5.96354e-15 0
lhumerus -36.2788 -42.4155 92.8437
lradius 60.9663 0 0
lwrist 16.7313 0 0
lhand 26.6657 11.724 0
lfingers 7.12502 0 0
lthumb 50.6846 32.5701 0
rclavicle -7.35505e-15 -5.96354e-15 0
rhumerus -48.7986 -26.4943 -53.0893
rradius 80.0053 0 0
rwrist -23.1912 0 0
rhand -47.2189 -59.2214 0
rfingers 7.12502 0 0
rthumb -19.9176 -895.212 0
887
root 3.77031 16.547 30.8312 -8.23242 26.5378 358.418
lfemur -19.2943 25.0024 -18.6332
ltibia 41.735 0 0
lfoot -13.8768 0.395135 0
ltoes -0.847168 0 0
rfemur -69.5506 -28.2688 28.3417
rtibia 108.564 0 0
rfoot 19.0353 20.2071 0
rtoes -5.52805 0 0
lowerback 12.1169 -4.58456 -6.5517
upperback 3.71569 -6.86769 -1.83682
thorax -2.29811 -3.40279 2.64426
lowerneck -7.7394 -4.12513 1.03041
upperneck 5.0736 -5.99024 5.17363
head 3.14269 -2.75343 1.19732
lclavicle 9.49728e-16 -6.37878e-15 0
lhumerus -37.4095 -43.0677 94.4102
lradius 61.0947 0 0
lwrist 15.7153 0 0
lhand 26.955 11.6736 0
lfingers 7.12502 0 0
lthumb 50.9486 32.375 0
rclavicle 9.49728e-16 -6.37878e-15 0
rhumerus -48.6395 -25.3872 -55.2269
rradius 82.6882 0 0
rwrist -23.1297 0 0
rhand -47.0288 -60.8695 0
rfingers 7.12502 0 0
rthumb -19.7349 -927.165 0
888
root 3.7499 16.5511 30.9062 -7.58438 27.2531 358.185
lfemur -20.1655 26.2534 -18.5387
ltibia 42.046 0 0
lfoot -14.1129 0.476652 0
ltoes -0.714015 0 0
rfemur -66.76 -29.2243 26.2979
rtibia 110.424 0 0
rfoot 18.9781 18.7076 0
rtoes -4.87418 0 0
lowerback 11.3946 -4.72768 -6.52765
upperback 3.40101 -7.01303 -1.70094
thorax -2.2119 -3.47503 2.73991
lowerneck -7.74457 -4.34512 0.858922
upperneck 5.17715 -6.27715 5.23175
head 3.19405 -2.89429 1.23046
lclavicle 8.98946e-15 -6.78077e-15 0
lhumerus -38.5041 -43.699 95.9268
lradius 61.2189 0 0
lwrist 14.7317 0 0
lhand 27.2351 11.6247 0
lfingers 7.12502 0 0
lthumb 51.2042 32.1862 0
rclavicle 8.98946e-15 -6.78077e-15 0
rhumerus -48.4855 -24.3155 -57.2963
rradius 85.2854 0 0
rwrist -23.0702 0 0
rhand -46.8448 -62.465 0
rfingers 7.12502 0 0
rthumb -19.558 -958.098 0
889
root 3.73083 16.555 30.9762 -6.97906 27.9212 357.967
lfemur -20.9792 27.4219 -18.4503
ltibia 42.3364 0 0
lfoot -14.3334 0.552795 0
ltoes -0.589641 0 0
rfemur -64.1533 -30.1168 24.3889
rtibia 112.161 0 0
rfoot 18.9247 17.307 0
rtoes -4.26342 0 0
lowerback 10.72 -4.86136 -6.50519
upperback 3.10707 -7.14878 -1.57402
thorax -2.13137 -3.5425 2.82926
lowerneck -7.7494 -4.55061 0.698737
upperneck 5.27387 -6.54513 5.28604
head 3.24202 -3.02587 1.26142
lclavicle 1.64991e-14 -7.15625e-15 0
lhumerus -39.5265 -44.2887 97.3433
lradius 61.335 0 0
lwrist 13.8129 0 0
lhand 27.4967 11.5791 0
lfingers 7.12502 0 0
lthumb 51.4429 32.0099 0
rclavicle 1.64991e-14 -7.15625e-15 0
rhumerus -48.3416 -23.3144 -59.2293
rradius 87.7114 0 0
rwrist -23.0146 0 0
rhand -46.6729 -63.9553 0
rfingers 7.12502 0 0
rthumb -19.3928 -986.992 0
890
root 3.72573 16.5457 31.0408 -6.45167 27.9651 358.079
lfemur -21.5955 27.6154 -18.5784
ltibia 42.8086 0 0
lfoot -14.5239 0.41517 0
ltoes -0.249291 0 0
rfemur -60.8284 -29.0608 21.9989
rtibia 111.079 0 0
rfoot 18.5153 14.6383 0
rtoes -2.19968 0 0
lowerback 10.0913 -4.80589 -6.39933
upperback 2.88691 -7.03228 -1.56729
thorax -2.03567 -3.48517 2.72179
lowerneck -7.69666 -4.76275 0.480356
upperneck 5.2154 -6.80157 5.26528
head 3.22833 -3.1606 1.27984
lclavicle 1.1829e-14 -9.53431e-15 0
lhumerus -40.7149 -44.2314 98.612
lradius 61.5894 0 0
lwrist 13.7546 0 0
lhand 27.5519 12.031 0
lfingers 7.12502 0 0
lthumb 51.4931 32.4327 0
rclavicle 1.1829e-14 -9.53431e-15 0
rhumerus -48.1063 -21.189 -61.6858
rradius 90.0617 0 0
rwrist -21.4671 0 0
rhand -42.4487 -59.1198 0
rfingers 7.12502 0 0
rthumb -15.3175 -954.9 0
891
root 3.72027 16.5356 31.11 -5.88706 28.012 358.198
lfemur -22.2552 27.8227 -18.7154
ltibia 43.314 0 0
lfoot -14.7278 0.267829 0
ltoes 0.115083 0 0
rfemur -57.2687 -27.9303 19.4401
rtibia 109.921 0 0
rfoot 18.0771 11.7813 0
rtoes 0.00972637 0 0
lowerback 9.41822 -4.74651 -6.286
upperback 2.65121 -6.90757 -1.56009
thorax -1.93322 -3.42378 2.60673
lowerneck -7.64019 -4.98986 0.24656
upperneck 5.1528 -7.07611 5.24306
head 3.21366 -3.30485 1.29956
lclavicle 6.82933e-15 -1.20802e-14 0
lhumerus -41.9871 -44.1701 99.9702
lradius 61.8618 0 0
lwrist 13.6923 0 0
lhand 27.6111 12.5148 0
lfingers 7.12502 0 0
lthumb 51.5468 32.8854 0
rclavicle 6.82933e-15 -1.20802e-14 0
rhumerus -47.8545 -18.9135 -64.3156
rradius 92.578 0 0
rwrist -19.8103 0 0
rhand -37.9264 -53.943 0
rfingers 7.12502 0 0
rthumb -10.9546 -920.544 0
